<mxfile host="app.diagrams.net" modified="2023-12-26T14:01:23.255Z" agent="Mozilla/5.0 (Macintosh; Intel Mac OS X 10_15_7) AppleWebKit/537.36 (KHTML, like Gecko) Chrome/120.0.0.0 Safari/537.36" version="22.1.11" etag="nzVL_4tYPd4cdy5-Astl" type="github">
  <diagram name="Page-1" id="63Gj9j148bYVDnYbve6n">
    <mxGraphModel>
      <root>
        <mxCell id="0" />
        <mxCell id="1" parent="0" />
      </root>
    </mxGraphModel>
  </diagram>
</mxfile>
